<?xml version="1.0" encoding="UTF-8"?>
<!-- Generator: Adobe Illustrator 16.0.0, SVG Export Plug-In . SVG Version: 6.00 Build 0)  -->
<svg width="637.4" height="652.19" enable-background="new 0 0 1080 1080" version="1.1" viewBox="0 0 637.4 652.19" xml:space="preserve" xmlns="http://www.w3.org/2000/svg" xmlns:cc="http://creativecommons.org/ns#" xmlns:dc="http://purl.org/dc/elements/1.1/" xmlns:rdf="http://www.w3.org/1999/02/22-rdf-syntax-ns#" xmlns:xlink="http://www.w3.org/1999/xlink"><metadata><rdf:RDF><cc:Work rdf:about=""><dc:format>image/svg+xml</dc:format><dc:type rdf:resource="http://purl.org/dc/dcmitype/StillImage"/><dc:title/></cc:Work></rdf:RDF></metadata>


<g transform="translate(-265.96 -190.28)">
	<defs>
		<rect id="SVGID_1_" width="1080" height="1080"/>
	</defs>
	<clipPath id="SVGID_2_">
		<use width="100%" height="100%" overflow="visible" xlink:href="#SVGID_1_"/>
	</clipPath>
	<path d="m518.81 321.46c-139.62 0-252.8 113.18-252.8 252.8 0 139.62 113.18 252.8 252.8 252.8 139.62 0 252.8-113.18 252.8-252.8 0-139.62-113.18-252.8-252.8-252.8" clip-path="url(#SVGID_2_)" fill="#fc762b"/>
	
	<rect x="351.15" y="486.18" width="334.02" height="197.62" clip-path="url(#SVGID_2_)" fill="#fff"/>
	<path d="m668.14 583.43c0 97.661-79.17 176.83-176.83 176.83-97.661 0-176.83-79.171-176.83-176.83s79.17-176.83 176.83-176.83c97.662 0 176.83 79.171 176.83 176.83" clip-path="url(#SVGID_2_)" fill="#fff"/><g fill="#fc762b">
	<polyline points="497.08 340.33 445.57 304.82 477.85 275.5 423.19 201.18 437.36 264.65 405.58 302.23 453.36 351.66" clip-path="url(#SVGID_2_)"/>
	<polyline points="570.91 345.46 552.12 285.79 595.6 282.5 598.18 190.28 570.34 249.05 522.17 259.16 529.46 327.52" clip-path="url(#SVGID_2_)"/>
	<polyline points="654.2 380.62 663.3 318.72 703.86 334.73 746.4 252.86 695.72 293.61 647.96 281.7 624.72 346.4" clip-path="url(#SVGID_2_)"/>
	<path d="m713.58 433.4 40.652-47.55 25.818 35.134 79.587-46.666-64.597 7.523-34.095-35.499c-13.47 10.549-40.643 31.84-54.107 42.397-3.558 2.791-22.277 17.473-25.836 20.265" clip-path="url(#SVGID_2_)"/>
	<polyline points="746.67 517.9 798.88 483.42 813.98 524.32 903.36 501.45 839.2 490.84 816.24 447.3 752.52 473.11" clip-path="url(#SVGID_2_)"/>
	<polyline points="747.91 605.65 807.64 587.04 810.78 630.53 903 633.4 844.31 605.38 834.35 557.17 765.98 564.26" clip-path="url(#SVGID_2_)"/>
	<polyline points="728.88 692.48 790.57 682.07 787.84 725.58 878.83 740.83 824.45 705.17 821.06 656.06 752.35 653.89" clip-path="url(#SVGID_2_)"/>
	<polyline points="669.71 759.35 732.09 764.14 718.94 805.71 803.56 842.47 759.39 794.74 767.96 746.27 701.81 727.57" clip-path="url(#SVGID_2_)"/>
	</g><rect x="630.15" y="510.08" width="32.746" height="32.747" clip-path="url(#SVGID_2_)" fill="#fff"/>
</g>
<g transform="translate(-265.96 -190.28)">
	<defs>
		<path id="SVGID_3_" d="m266.01 571.64c-0.91 47.062 11.85 83.913 20.959 104.79 127.49 0.08 254.99 0.16 382.48 0.238v-181.24c-129.68-0.794-259.35-1.587-389.03-2.38-6.577 18.472-13.768 45.483-14.409 78.59"/>
	</defs>
	<clipPath id="SVGID_4_">
		<use width="100%" height="100%" overflow="visible" xlink:href="#SVGID_3_"/>
	</clipPath>
	
		<linearGradient id="SVGID_5_" x2="1" y1="1080" y2="1080" gradientTransform="matrix(403.48 0 0 -403.48 265.92 436348)" gradientUnits="userSpaceOnUse">
		<stop stop-color="#FC762B" offset="0"/>
		<stop stop-color="#FC762B" offset=".0743"/>
		<stop stop-color="#FC762B" offset=".3094"/>
		<stop stop-color="#FB8217" offset=".5862"/>
		<stop stop-color="#FBAE17" offset="1"/>
	</linearGradient>
	<rect x="265.1" y="493.05" width="404.35" height="183.62" clip-path="url(#SVGID_4_)" fill="url(#SVGID_5_)"/>
</g>
<g transform="translate(-265.96 -190.28)">
	<defs>
		<rect id="SVGID_6_" width="1080" height="1080"/>
	</defs>
	<clipPath id="SVGID_7_">
		<use width="100%" height="100%" overflow="visible" xlink:href="#SVGID_6_"/>
	</clipPath><g fill="#f94a2d">
	<polyline points="561.25 321.39 535.05 276.85 595.31 280.78 553.39 284.71 563.87 320.08" clip-path="url(#SVGID_7_)"/>
	<polygon points="478.21 275.61 445.46 305.74 480.83 328.01 434.98 304.43" clip-path="url(#SVGID_7_)"/>
	<polygon points="655.32 311.7 703.79 333.96 663.18 318.25 660.22 339.71" clip-path="url(#SVGID_7_)"/>
	<polygon points="753.63 370.71 781.14 420.49 755.38 385.99 736.95 406.23" clip-path="url(#SVGID_7_)"/>
	<polygon points="801.72 468.57 815.02 523.06 799.76 484.81 780.76 493.46" clip-path="url(#SVGID_7_)"/>
	<polygon points="812.22 578.19 810.71 629.54 808.29 587.36 770.31 597.84" clip-path="url(#SVGID_7_)"/>
	<polygon points="799.12 672.5 789.93 722.26 791.27 680.29 744.56 688.17" clip-path="url(#SVGID_7_)"/>
</g></g>
<g transform="translate(-265.96 -190.28)">
	<defs>
		<rect id="SVGID_8_" width="1080" height="1080"/>
	</defs>
	<clipPath id="SVGID_9_">
		<use width="100%" height="100%" overflow="visible" xlink:href="#SVGID_8_"/>
	</clipPath>
	
		<linearGradient id="SVGID_10_" x1=".00048828" x2="1.0005" y1="1080" y2="1080" gradientTransform="matrix(318.01 0 0 -318.01 351.98 343994)" gradientUnits="userSpaceOnUse">
		<stop stop-color="#FB8217" offset="0"/>
		<stop stop-color="#FB8217" offset=".101"/>
		<stop stop-color="#EFFF93" offset=".9901"/>
		<stop stop-color="#EFFF93" offset="1"/>
	</linearGradient>
	<path d="m442 529h66v11.001l-0.501-1e-3c-10.75-0.027-21.499-0.041-32.249-0.041s-21.499 0.014-32.249 0.041c-28.33 0.072-56.663 0.238-84.997 0.5l-9e-3 -1c28.336-0.262 56.671-0.428 85.003-0.5 10.75-0.027 21.501-0.041 32.251-0.041s21.501 0.014 32.251 0.041l-1e-3 0.5h-0.499v-9.5h-65zm-90.002-0.5c15.168-0.069 30.335-0.104 45.503-0.104s30.334 0.035 45.502 0.104c21.5 0.098 43.001 0.264 64.503 0.5l-5e-3 0.5h-0.501v-10h0.5l-1e-3 0.5c-10.918-0.026-21.835-0.039-32.751-0.039s-21.832 0.013-32.747 0.039c-29.664 0.071-59.329 0.237-88.997 0.5l-9e-3 -1c29.67-0.263 59.337-0.429 89.003-0.5 10.916-0.026 21.832-0.039 32.749-0.039s21.834 0.013 32.753 0.039l0.499 1e-3v11.004l-0.504-5e-3c-21.5-0.236-42.999-0.402-64.497-0.5-15.166-0.069-30.332-0.104-45.497-0.104-15.166 0-30.332 0.035-45.498 0.104zm155 44.5v-18.5h0.5l-2e-3 0.5c-12.748-0.043-25.497-0.064-38.247-0.064s-25.5 0.021-38.25 0.064c-24.997 0.084-49.996 0.251-74.997 0.5l-0.01-1c25.003-0.249 50.004-0.416 75.003-0.5 12.752-0.043 25.503-0.064 38.253-0.064s25.5 0.021 38.25 0.064l0.499 2e-3v18.998zm163 11h-90.745l-7.255-9.328v-19.858l-30.51-14.763-33.789 14.906-0.403-0.914 34.211-15.094 31.491 15.238v20.142l6.744 8.672h90.256zm-97-30h97v1h-97zm97-21h-128v7h-1v-8h129zm-44 0v-13h-118v-1h119v14zm-85-13v-9.226l-11-7v-8.774h1v8.226l11 7v9.774zm0.276-9.947 11.724-5.862v-9.191h1v9.809l-12.276 6.138zm-10.277-7.053c-59.333-0.167-118.67-0.333-178-0.5l3e-3 -1c59.333 0.167 118.67 0.333 178 0.5zm23.005 1 116 1-8e-3 1-116-1z" clip-path="url(#SVGID_9_)" fill="url(#SVGID_10_)"/>
	
		<linearGradient id="SVGID_11_" x2="1" y1="1080" y2="1080" gradientTransform="matrix(344.01 0 0 -344.01 326 372145)" gradientUnits="userSpaceOnUse">
		<stop stop-color="#FB8217" offset="0"/>
		<stop stop-color="#FB8217" offset=".101"/>
		<stop stop-color="#EFFF93" offset=".9901"/>
		<stop stop-color="#EFFF93" offset="1"/>
	</linearGradient>
	<path d="m358.76 608h89.913v11h-88.548v-1h87.548v-9h-88.913zm1.365 0h87.548v-9h-88.913v-1h89.913v11h-88.548zm87.548 44v-18h-103.93v-1h104.93v19zm222.32 11h-123.74l-9.857-9.284v-19.862l-41.824-14.825-46.252 14.947-0.308-0.951 46.574-15.053 42.81 15.175v20.138l9.253 8.716h123.34zm-132.41-30h132.41v1h-132.41zm132.41-21h-174.91v7h-1v-8h175.91zm-59.881 0v-13h-161.26v-1h162.26v14zm-116.03-13v-9.182l-15.017-7v-8.818h1v8.182l15.017 7v9.818zm0.328-9.97 16.052-5.88v-9.15h1v9.85l-16.708 6.12zm-14.162-7.03h-154.25v-1h154.25zm31.4 1 158.35 1-6e-3 1-158.35-1z" clip-path="url(#SVGID_9_)" fill="url(#SVGID_11_)"/>
</g><g fill="#ffffff">
<text x="145.8286" y="458.0188" font-family="LemonMilk" font-size="89.071px">CSBC</text>

<text x="45.143997" y="384.55402" font-family="LemonMilk" font-size="75.972px">40</text>

<text x="147.8974" y="355.28741" font-family="MyriadPro-Regular" font-size="59.498px">ยบ</text>

</g></svg>
